HIERARCHY
ROOT Hips
{
  OFFSET 0.382225 96.6805 0.598322
  CHANNELS 6 Xposition Yposition Zposition Zrotation Xrotation Yrotation
  JOINT Spine
  {
    OFFSET 10.8089 -0.851416 0
    CHANNELS 3 Zrotation Xrotation Yrotation
    JOINT Spine1
    {
      OFFSET 18.8753 3.80116 0
      CHANNELS 3 Zrotation Xrotation Yrotation
      JOINT Spine2
      {
        OFFSET 13.4073 0.420477 0
        CHANNELS 3 Zrotation Xrotation Yrotation
        JOINT LeftShoulder
        {
          OFFSET 11.8837 -2.73209 -3.78198
          CHANNELS 3 Zrotation Xrotation Yrotation
          JOINT LeftArm
          {
            OFFSET 15.7849 0 -2.35849e-005
            CHANNELS 3 Zrotation Xrotation Yrotation
            JOINT LeftForeArm
            {
              OFFSET 30.3399 0 0
              CHANNELS 3 Zrotation Xrotation Yrotation
              JOINT LeftHand
              {
                OFFSET 26.9751 0 2.45913e-005
                CHANNELS 3 Zrotation Xrotation Yrotation
                End Site
                {
                  OFFSET 8 0 0
                }
              }
            }
          }
        }
        JOINT RightShoulder
        {
          OFFSET 11.8838 -2.7321 3.782
          CHANNELS 3 Zrotation Xrotation Yrotation
          JOINT RightArm
          {
            OFFSET -15.7848 0 -1.07056e-005
            CHANNELS 3 Zrotation Xrotation Yrotation
            JOINT RightForeArm
            {
              OFFSET -30.34 1.02096e-005 -2.53607e-005
              CHANNELS 3 Zrotation Xrotation Yrotation
              JOINT RightHand
              {
                OFFSET -26.9752 2.07668e-005 0
                CHANNELS 3 Zrotation Xrotation Yrotation
                End Site
                {
                  OFFSET -8 0 0
                }
              }
            }
          }
        }
        JOINT Neck
        {
          OFFSET 16.5588 -0.355318 0
          CHANNELS 3 Zrotation Xrotation Yrotation
          JOINT Head
          {
            OFFSET 9.28361 0.364157 0
            CHANNELS 3 Zrotation Xrotation Yrotation
            End Site
            {
              OFFSET 0 0 0
            }
          }
        }
      }
    }
  }
  JOINT LeftUpLeg
  {
    OFFSET -1.44883 -0.531424 -9.00581
    CHANNELS 3 Zrotation Xrotation Yrotation
    JOINT LeftLeg
    {
      OFFSET -42.572 0.0788889 -0.011964
      CHANNELS 3 Zrotation Xrotation Yrotation
      JOINT LeftFoot
      {
        OFFSET -40.1967 0 0
        CHANNELS 3 Zrotation Xrotation Yrotation
				JOINT LeftToe
        {
          OFFSET -10.4538 -16.5779 0.0801563
          CHANNELS 3 Zrotation Xrotation Yrotation
          End Site
          {
            OFFSET -1.0 -1.0 0.0
          }
        }
      }
    }
  }
  JOINT RightUpLeg
  {
    OFFSET -1.44865 -0.531427 9.0058
    CHANNELS 3 Zrotation Xrotation Yrotation
    JOINT RightLeg
    {
      OFFSET 42.5723 -3.24776e-005 0
      CHANNELS 3 Zrotation Xrotation Yrotation
      JOINT RightFoot
      {
        OFFSET 40.1968 0 -1.14003e-005
        CHANNELS 3 Zrotation Xrotation Yrotation
				JOINT RightToe
        {
          OFFSET 10.4538 16.5778 -0.0801573
          CHANNELS 3 Zrotation Xrotation Yrotation
          End Site
          {
            OFFSET -1.0 -1.0 0.0
          }
        }
      }
    }
  }
}
MOTION
Frames:	14
Frame Time:	0.0333333
-175.917 83.4164 53.2461 130.406 -56.3241 25.9247 -7.01645 20.4697 -14.8766 23.5964 -0.539537 -0.876291 2.7794 1.93418e-006 1.65929e-005 -2.69694 10.7639 83.6229 -39.2167 14.0953 -1.54975 -86.4851 14.0256 -20.2848 -103.311 -49.9583 -71.9783 -177.272 -6.80189 90.1741 -48.5523 -30.5352 21.5636 -96.963 -8.22185 -7.64889 -107.17 -64.9755 -84.1137 -23.508 4.63459e-006 -5.90926e-006 27.6779 4.33309 7.4169 5.1177 15.6239 -18.5492 -53.2288 -3.28925 -2.6683 22.7456 4.14982 3.60788 -90 0 0 162.987 -1.34419 -33.9491 -45.2294 -3.51777 -3.34687 28.7546 12.4772 14.1987 -90 0 0
-174.878 82.8195 54.4676 135.485 -57.7718 28.8702 -4.59895 17.9545 -15.9725 24.5041 -0.598383 -0.95485 2.7794 1.93418e-006 1.65929e-005 -2.70883 11.6468 83.7389 -36.728 11.011 -5.38314 -86.7367 14.1409 -20.2872 -95.0641 -54.4759 -63.8769 -177.473 -5.38067 91.9332 -44.7586 -27.362 20.0789 -99.1725 -8.11708 -7.81433 -107.471 -66.0326 -83.1536 -23.508 4.63459e-006 -5.90926e-006 22.1761 4.06383 6.04278 2.41431 16.4417 -16.7777 -55.4515 -3.01563 -2.8365 23.8443 4.2013 1.8031 -90 0 0 161.502 -2.13215 -35.4515 -46.6476 -3.29595 -3.51902 30.922 15.7588 10.585 -90 0 0
-174.976 82.1111 54.8905 140.209 -59.6843 32.8049 -3.06931 15.8302 -17.8943 23.9317 -0.56112 -0.905402 2.7794 1.93418e-006 1.65929e-005 -2.80405 12.5037 84.546 -35.314 8.79781 -3.95539 -89.0411 15.3914 -20.29 -94.5672 -56.2023 -63.7412 -178.188 -2.27951 93.207 -39.9134 -22.1782 20.2075 -103.14 -7.88606 -8.09482 -106.203 -66.2885 -80.1543 -23.508 4.63459e-006 -5.90926e-006 18.1972 4.47619 7.36792 1.39941 18.3562 -17.1606 -56.8055 -2.9011 -2.93396 24.1686 4.23397 2.46313 -90 0 0 162.432 -3.75938 -36.5872 -49.1238 -2.99995 -3.81 32.562 16.0759 10.3854 -90 0 0
-176.078 81.2617 54.6129 142.444 -60.7687 35.0904 -3.38524 12.2009 -19.0004 23.0836 -0.506839 -0.831523 2.7794 1.93418e-006 1.65929e-005 -2.82784 13.3232 84.6043 -32.2568 7.23372 0.696031 -93.3191 17.6507 -20.158 -97.0927 -57.1874 -65.6721 -179.406 1.73373 95.3359 -36.8046 -16.0161 20.1184 -105.577 -7.72405 -8.2566 -114.057 -65.5848 -88.7171 -23.508 4.63459e-006 -5.90926e-006 16.3751 6.18523 7.84438 1.57596 18.7208 -17.5568 -57.3387 -2.80944 -2.97148 25.2558 5.68655 1.36493 -90 0 0 164.459 -6.08763 -36.7372 -53.0656 -2.56261 -4.23964 33.8725 14.5198 12.9735 -90 0 0
-178.294 80.4734 53.6842 141.666 -60.5065 35.1407 -4.79431 7.25097 -19.6481 20.5773 -0.352925 -0.608575 2.7794 1.93418e-006 1.65929e-005 -2.93148 13.4284 85.3962 -25.8654 5.70735 4.90057 -98.4565 20.3007 -19.7685 -100.015 -56.9689 -68.2699 178.713 6.18349 98.4233 -37.4928 -12.8661 19.3736 -103.906 -7.82785 -8.14472 -115.884 -66.3229 -91.5868 -23.508 4.63459e-006 -5.90926e-006 17.5297 9.08097 6.61349 3.23915 16.0997 -18.8539 -57.5591 -2.8834 -2.98676 24.3734 7.04394 4.56515 -90 0 0 168.355 -7.50383 -34.9095 -58.8013 -1.86136 -4.79227 34.6693 13.1169 14.5707 -90 0 0
-181.593 80.2592 52.4326 139.783 -59.3477 34.004 -7.5895 3.0029 -19.3945 19.041 -0.26347 -0.468687 2.7794 1.93418e-006 1.65929e-005 -2.97514 15.1341 85.2632 -21.0947 4.82112 11.765 -101.639 21.894 -19.4033 -98.2123 -57.3914 -66.184 176.905 8.92681 102.15 -42.1213 -13.5032 19.8299 -97.4389 -8.2022 -7.68488 -115.06 -68.3499 -91.9485 -23.508 4.63459e-006 -5.90926e-006 16.6108 12.1376 5.2406 3.77376 11.4251 -19.9002 -55.0134 -3.27995 -2.80402 20.8883 8.02629 9.52603 -90 0 0 172.091 -7.72579 -31.9158 -63.3402 -1.25107 -5.16972 35.2245 12.7006 14.6312 -90 0 0
-185.637 81.2721 51.0491 135.788 -57.8551 30.0811 -8.97683 1.86725 -17.9144 18.2567 -0.219254 -0.396356 2.7794 1.93418e-006 1.65929e-005 -3.23829 15.7102 86.7272 -15.5013 2.91912 16.2285 -102.846 22.4867 -19.2405 -97.1584 -57.3107 -65.3911 176.866 8.2229 104.169 -45.4064 -16.9 20.8639 -91.0017 -8.51109 -7.18769 -115.467 -69.684 -94.0668 -23.508 4.63459e-006 -5.90926e-006 13.6672 11.1546 6.71962 4.4531 7.77425 -19.7721 -49.0493 -3.84542 -2.32814 14.721 8.67916 9.42703 -90 0 0 174.227 -6.43734 -29.0832 -63.1708 -1.24945 -5.15716 35.5506 13.6836 13.868 -90 0 0
-190.481 83.5178 49.7668 127.198 -54.6969 21.3809 -8.00505 3.58531 -14.4887 18.5766 -0.23716 -0.425941 2.7794 1.93418e-006 1.65929e-005 -3.3021 15.7318 87.1085 -11.7566 -0.791006 16.9734 -102.194 22.1675 -19.33 -103.839 -55.9445 -72.4929 177.849 6.67247 102.811 -47.2681 -22.3386 20.4456 -86.912 -8.69424 -6.8544 -111.455 -70.3327 -89.6644 -23.508 4.63459e-006 -5.90926e-006 11.7881 7.29496 9.71247 4.97824 4.43085 -18.8201 -36.5239 -4.80728 -1.1275 4.67364 8.38663 6.99003 -90 0 0 176.358 -2.92457 -26.1024 -59.8382 -1.65496 -4.88417 34.5397 16.0973 11.8311 -90 0 0
-195.892 86.379 48.7471 116.867 -46.0078 10.9211 -6.62987 4.92898 -8.9046 20.2344 -0.332636 -0.577545 2.7794 1.93418e-006 1.65929e-005 -3.05414 14.7864 85.877 -12.9582 -4.79329 12.2627 -98.6385 20.3928 -19.7502 -117.988 -53.716 -87.8247 179.475 4.36703 97.7934 -45.3643 -28.8374 18.5775 -86.4985 -8.69678 -6.82063 -105.311 -72.876 -84.0787 -23.508 4.63459e-006 -5.90926e-006 9.64972 1.22278 13.6079 5.63934 4.43082 -17.3308 -15.4891 -5.75134 0.796869 -13.2767 3.43359 1.67997 -90 0 0 179.583 3.46054 -22.8643 -58.0276 -1.87039 -4.72333 30.2006 19.9495 9.63025 -90 0 0
-201.223 89.0465 47.8282 111.302 -31.1524 4.53861 -9.08966 4.69408 -2.80507 22.6079 -0.476875 -0.789717 2.7794 1.93418e-006 1.65929e-005 -2.67478 12.8188 83.4195 -20.1399 -8.18974 6.56427 -92.5539 17.2495 -20.1945 -123.813 -52.0445 -95.3359 -178.894 1.59918 89.5049 -40.1638 -33.5481 12.2212 -88.0344 -8.63656 -6.94744 -100.222 -74.7039 -78.4447 -23.508 4.63459e-006 -5.90926e-006 6.72282 -6.41802 18.2847 10.5893 10.0144 -14.5748 -9.61422 -5.93246 1.50712 -10.1913 -5.63534 5.89768 -90 0 0 -177.179 9.82787 -20.1738 -60.7215 -1.57384 -4.95995 20.6745 23.3323 10.8725 -90 0 0
-207.043 91.0263 47.6436 108.625 -15.4383 1.85031 -13.1031 5.28635 1.66765 22.9227 -0.496668 -0.817394 2.7794 1.93418e-006 1.65929e-005 -2.51496 8.75221 80.2033 -28.2521 -10.5383 2.23504 -85.6865 13.5964 -20.2703 -123.839 -55.4675 -97.3474 -177.914 0.989786 80.4854 -33.6776 -33.1628 1.74504 -88.3929 -8.62278 -6.97682 -90.8594 -73.6984 -65.9318 -23.508 4.63459e-006 -5.90926e-006 3.8828 -15.7237 20.2775 18.6104 10.4893 -11.6067 -25.3944 -5.38926 -0.224958 -4.8747 3.37862 -0.60903 -90 0 0 -171.688 12.482 -15.9308 -65.7586 -0.922724 -5.34292 9.16109 21.524 8.41942 -90 0 0
-212.432 91.9113 48.5163 106.07 -1.86578 0.626048 -15.9989 4.02669 4.75788 22.8196 -0.490167 -0.808352 2.7794 1.93418e-006 1.65929e-005 -2.60472 6.16005 75.8566 -35.3923 -9.39878 0.733449 -78.7126 9.85355 -19.8838 -123.718 -60.2183 -100.181 -177.091 1.45666 74.0017 -29.5844 -26.2188 -5.80079 -85.2599 -8.74258 -6.71722 -71.717 -75.2796 -47.4834 -23.508 4.63459e-006 -5.90926e-006 -2.44521 -24.0864 16.9038 25.076 6.63492 -10.9513 -45.3108 -3.96415 -2.00272 -1.0784 10.7371 -6.1133 -90 0 0 -165.269 11.0059 -12.1076 -66.9922 -0.918965 -5.41095 2.47267 1.91395 15.4877 -90 0 0
-216.593 92.0366 49.8924 105.444 8.86999 -0.318061 -18.4374 -1.25113 7.02816 21.6788 -0.419396 -0.707362 2.7794 1.93418e-006 1.65929e-005 -2.54363 5.85001 71.595 -39.5004 -6.24446 5.51982 -74.0265 7.36265 -19.3666 -124.14 -65.0282 -103.775 -176.984 2.87882 73.8123 -36.4899 -18.1937 -8.74698 -77.2241 -8.98595 -6.02469 -35.393 -74.4779 -13.6838 -23.508 4.63459e-006 -5.90926e-006 -11.1607 -28.0919 8.21314 25.6215 1.34815 -13.1883 -60.6003 -2.52693 -3.18201 -0.882014 5.99484 -5.05765 -90 0 0 -158.391 8.24393 -10.383 -69.9684 -0.51936 -5.58872 6.50526 -2.80569 17.2236 -90 0 0
-220.078 91.898 50.9906 105.334 17.3094 0.314701 -19.7465 -5.58667 6.62513 19.9066 -0.313425 -0.547795 2.7794 1.93418e-006 1.65929e-005 -2.84853 4.50417 72.1218 -40.4022 -3.19293 16.7786 -70.9117 5.73174 -18.9112 -117.651 -68.42 -98.3075 -177.724 3.53252 78.3818 -45.2526 -12.848 -3.66397 -71.4606 -9.10064 -5.51015 -18.2897 -69.5481 2.38929 -23.508 4.63459e-006 -5.90926e-006 -19.5059 -32.3928 -0.969131 21.6809 -3.71132 -19.7319 -68.6229 -1.67059 -3.60958 -2.15899 5.23632 -3.17789 -90 0 0 -153.857 5.80639 -9.47708 -68.336 -0.630473 -5.49585 7.34538 4.64665 11.3683 -90 0 0
